<svg width="30" height="30" viewBox="0 0 26 26" fill="none" xmlns="http://www.w3.org/2000/svg">
<g clip-path="url(#clip0_1_4)">
<rect width="24" height="24" transform="translate(1.1352 0.86631) rotate(0.641943)" fill="white"/>
<path d="M16.2488 3.96644C11.26 2.1723 5.76057 4.76243 3.96643 9.75122C2.17229 14.74 4.76243 20.2394 9.75121 22.0336C14.74 23.8277 20.2394 21.2376 22.0336 16.2488C23.8277 11.26 21.2376 5.76058 16.2488 3.96644ZM14.1423 7.45969L15.6479 8.00116L15.1043 9.51263C16.4929 10.0486 17.0764 11.0519 16.6676 12.1886C16.3806 12.9866 15.5416 13.4693 14.7281 13.306L14.6943 13.4001C15.6647 13.8316 16.1193 14.8442 15.7704 15.8145C15.2966 17.1319 14.0032 17.6074 12.3997 17.0333L11.8577 18.5403L10.3521 17.9989L10.8935 16.4933L9.01155 15.8164L11.7189 8.28846L13.6009 8.96529L14.1423 7.45969ZM12.8614 10.061L12.173 11.9753L13.3566 12.401C14.2072 12.7069 14.7965 12.5247 15.0142 11.9195C15.23 11.3195 14.9272 10.8039 14.1759 10.5337L12.8614 10.061ZM11.7902 13.0398L11.0213 15.1776L12.424 15.6821C13.3319 16.0086 13.9593 15.8037 14.2125 15.0999C14.4602 14.411 14.0843 13.8648 13.1561 13.531L11.7902 13.0398Z" fill="#228BE6"/>
</g>
<defs>
<clipPath id="clip0_1_4">
<rect width="24" height="24" fill="white" transform="translate(1.1352 0.86631) rotate(0.641943)"/>
</clipPath>
</defs>
</svg>
