<svg width="22  " height="22" viewBox="0 0 16 16" fill="none" xmlns="http://www.w3.org/2000/svg">
<g clip-path="url(#clip0_141_2586)">
<path d="M11.3 12C11.4768 12 11.6464 11.9297 11.7714 11.8047C11.8964 11.6797 11.9667 11.5101 11.9667 11.3333L12 5.99996C12 5.82315 11.9298 5.65358 11.8047 5.52855C11.6797 5.40353 11.5101 5.33329 11.3333 5.33329C11.1565 5.33329 10.987 5.40353 10.8619 5.52855C10.7369 5.65358 10.6667 5.82315 10.6667 5.99996V9.70662L5.14 4.19329C5.07802 4.13081 5.00429 4.08121 4.92305 4.04737C4.84181 4.01352 4.75467 3.99609 4.66667 3.99609C4.57866 3.99609 4.49152 4.01352 4.41028 4.04737C4.32904 4.08121 4.25531 4.13081 4.19333 4.19329C4.13085 4.25527 4.08125 4.329 4.0474 4.41024C4.01356 4.49148 3.99613 4.57862 3.99613 4.66663C3.99613 4.75463 4.01356 4.84177 4.0474 4.92301C4.08125 5.00425 4.13085 5.07798 4.19333 5.13996L9.72 10.6666H6C5.82319 10.6666 5.65362 10.7369 5.52859 10.8619C5.40357 10.9869 5.33333 11.1565 5.33333 11.3333C5.33333 11.5101 5.40357 11.6797 5.52859 11.8047C5.65362 11.9297 5.82319 12 6 12H11.3Z" fill="#231F20"/>
</g>
<defs>
<clipPath id="clip0_141_2586">
<rect width="16" height="16" fill="white" transform="translate(16) rotate(90)"/>
</clipPath>
</defs>
</svg>
