<svg width="12" height="12" viewBox="0 0 23 23" fill="none" xmlns="http://www.w3.org/2000/svg">
<g clip-path="url(#clip0_133_2530)">
<path d="M9.29812 -6.36318e-05C9.02799 -6.36318e-05 8.80876 0.218681 8.80876 0.489298C8.80876 0.759915 9.02799 0.97866 9.29812 0.97866L21.3296 0.97866L0.143627 22.1646C-0.047713 22.3559 -0.047713 22.6652 0.143627 22.8566C0.334968 23.0479 0.644244 23.0479 0.835585 22.8566L22.0215 1.67062L22.0215 13.7021C22.0215 13.9727 22.2408 14.1914 22.5109 14.1914C22.781 14.1914 23.0002 13.9727 23.0002 13.7021L23.0002 0.489298C23.0002 0.425681 22.987 0.362064 22.9626 0.302362C22.9131 0.182468 22.8177 0.0870426 22.6978 0.0376171C22.6381 0.0126596 22.5745 -6.36318e-05 22.5109 -6.36318e-05L9.29812 -6.36318e-05Z" fill="#098551"/>
</g>
<defs>
<clipPath id="clip0_133_2530">
<rect width="23" height="23" fill="white" transform="translate(0.000244141 23.0001) rotate(-90)"/>
</clipPath>
</defs>
</svg>
