<svg width="12" height="12" viewBox="0 0 23 23" fill="none" xmlns="http://www.w3.org/2000/svg">
<g clip-path="url(#clip0_133_2530)">
<path d="M23.0006 9.29787C23.0006 9.02774 22.7819 8.80851 22.5112 8.80851C22.2406 8.80851 22.0219 9.02774 22.0219 9.29787V21.3293L0.835951 0.143383C0.644611 -0.0479572 0.335334 -0.0479572 0.143994 0.143383C-0.0473468 0.334724 -0.0473468 0.644 0.143994 0.835341L21.3299 22.0213H9.29848C9.02787 22.0213 8.80912 22.2405 8.80912 22.5106C8.80912 22.7808 9.02787 23 9.29848 23H22.5112C22.5749 23 22.6385 22.9868 22.6982 22.9623C22.8181 22.9129 22.9135 22.8175 22.9629 22.6976C22.9879 22.6379 23.0006 22.5743 23.0006 22.5106V9.29787Z" fill="#CF202F"/>
</g>
<defs>
<clipPath id="clip0_133_2530">
<rect width="23" height="23" fill="white" transform="translate(0.000488281 -6.10352e-05)"/>
</clipPath>
</defs>
</svg>
