<svg width="22" height="22" viewBox="0 0 16 16" fill="none" xmlns="http://www.w3.org/2000/svg">
<g clip-path="url(#clip0_141_2586)">
<path d="M12 4.7C12 4.52319 11.9297 4.35362 11.8047 4.2286C11.6797 4.10357 11.5101 4.03333 11.3333 4.03333L5.99996 4C5.82315 4 5.65358 4.07024 5.52855 4.19526C5.40353 4.32029 5.33329 4.48986 5.33329 4.66667C5.33329 4.84348 5.40353 5.01305 5.52855 5.13807C5.65358 5.2631 5.82315 5.33333 5.99996 5.33333H9.70662L4.19329 10.86C4.13081 10.922 4.08121 10.9957 4.04737 11.077C4.01352 11.1582 3.99609 11.2453 3.99609 11.3333C3.99609 11.4213 4.01352 11.5085 4.04737 11.5897C4.08121 11.671 4.13081 11.7447 4.19329 11.8067C4.25527 11.8692 4.329 11.9188 4.41024 11.9526C4.49148 11.9864 4.57862 12.0039 4.66663 12.0039C4.75463 12.0039 4.84177 11.9864 4.92301 11.9526C5.00425 11.9188 5.07798 11.8692 5.13996 11.8067L10.6666 6.28V10C10.6666 10.1768 10.7369 10.3464 10.8619 10.4714C10.9869 10.5964 11.1565 10.6667 11.3333 10.6667C11.5101 10.6667 11.6797 10.5964 11.8047 10.4714C11.9297 10.3464 12 10.1768 12 10V4.7Z" fill="#098551"/>
</g>
<defs>
<clipPath id="clip0_141_2586">
<rect width="16" height="16" fill="white"/>
</clipPath>
</defs>
</svg>
