<svg width="16" height="16" viewBox="0 0 16 16" fill="none" xmlns="http://www.w3.org/2000/svg">
<g clip-path="url(#clip0_140_2566)">
<path d="M15.986 6.17979C15.9522 6.07612 15.8626 6.00051 15.7546 5.98476L10.5737 5.23183L8.25681 0.53725C8.2087 0.439303 8.10903 0.377441 8.0002 0.377441C7.89137 0.377441 7.79142 0.439303 7.74359 0.53725L5.42637 5.23211L0.2455 5.98504C0.137529 6.0008 0.0481737 6.07612 0.0140928 6.18008C-0.0194153 6.28347 0.00836492 6.39745 0.0865506 6.47335L3.83574 10.1277L2.9505 15.288C2.93217 15.3954 2.97627 15.5039 3.06419 15.5681C3.15269 15.6328 3.26982 15.6411 3.36577 15.5899L8.0002 13.1538L12.6341 15.5899C12.6759 15.6119 12.722 15.6228 12.7675 15.6228C12.8268 15.6228 12.8858 15.6045 12.9359 15.5681C13.0241 15.5039 13.0682 15.3954 13.0496 15.288L12.1647 10.128L15.9139 6.47335C15.9918 6.39688 16.0198 6.28318 15.986 6.17979Z" fill="white"/>
</g>
<defs>
<clipPath id="clip0_140_2566">
<rect width="16" height="16" fill="white"/>
</clipPath>
</defs>
</svg>
