<svg width="16" height="16" viewBox="0 0 16 16" fill="none" xmlns="http://www.w3.org/2000/svg">
<g clip-path="url(#clip0_140_2547)">
<path d="M7.99998 0C3.58202 0 0 3.59674 0 8.00002C0 12.4014 3.5799 16 7.99995 16C12.4179 16 16 12.4033 16 8.00002C16 3.59865 12.4201 0 7.99998 0ZM14.1244 5.34411C14.3949 5.96568 14.5738 6.63596 14.6433 7.33802H11.9972C11.9703 6.65133 11.9019 5.98208 11.7943 5.34411H14.1244ZM13.3568 4.02015H11.5024C11.2962 3.27656 11.0088 2.52146 10.6186 1.85931C11.7114 2.32709 12.6552 3.07831 13.3568 4.02015ZM7.99998 1.32397C9.02698 1.32397 9.80148 3.01137 10.1223 4.02015H5.87768C6.19596 3.01928 6.97049 1.32397 7.99998 1.32397ZM10.4509 5.34411C10.5683 5.97421 10.6432 6.64464 10.6723 7.33802H5.32761C5.3568 6.64464 5.43158 5.97424 5.54902 5.34411H10.4509ZM5.38136 1.85931C4.99124 2.52143 4.70377 3.27649 4.49758 4.02015H2.64321C3.34477 3.07831 4.28852 2.32709 5.38136 1.85931ZM1.87562 5.34411H4.20571C4.09815 5.98205 4.02968 6.65133 4.00284 7.33802H1.35675C1.42618 6.63596 1.60503 5.96568 1.87562 5.34411ZM1.87562 10.6559C1.60506 10.0343 1.42618 9.36401 1.35675 8.66195H4.00284C4.02971 9.34864 4.09815 10.0179 4.20571 10.6559H1.87562ZM2.64321 11.9798H4.49755C4.70371 12.7234 4.99121 13.4786 5.38133 14.1407C4.28852 13.6729 3.34477 12.9217 2.64321 11.9798ZM7.99998 14.676C6.97299 14.676 6.19849 12.9886 5.87768 11.9798H10.1223C9.80398 12.9807 9.02948 14.676 7.99998 14.676ZM5.54902 10.6559C5.43161 10.0258 5.35677 9.35533 5.32761 8.66195H10.6723C10.6432 9.35533 10.5684 10.0257 10.4509 10.6559H5.54902ZM10.6186 14.1407C11.0087 13.4786 11.2962 12.7234 11.5024 11.9798H13.3567C12.6552 12.9217 11.7114 13.6729 10.6186 14.1407ZM14.1243 10.6559H11.7943C11.9018 10.0179 11.9703 9.34864 11.9971 8.66195H14.6432C14.5738 9.36401 14.3949 10.0343 14.1243 10.6559Z" fill="#231F20"/>
</g>
<defs>
<clipPath id="clip0_140_2547">
<rect width="16" height="16" fill="white"/>
</clipPath>
</defs>
</svg>
